<svg xmlns="http://www.w3.org/2000/svg" viewBox="0 0 200 200" width="200" height="200">
  <!-- Orca whale logo for the job orchestrator -->
  <defs>
    <linearGradient id="orcaGradient" x1="0%" y1="0%" x2="100%" y2="100%">
      <stop offset="0%" style="stop-color:#1E3A8A;stop-opacity:1" />
      <stop offset="50%" style="stop-color:#3B82F6;stop-opacity:1" />
      <stop offset="100%" style="stop-color:#60A5FA;stop-opacity:1" />
    </linearGradient>
    <radialGradient id="eyeGradient" cx="50%" cy="50%" r="50%">
      <stop offset="0%" style="stop-color:#FFFFFF;stop-opacity:1" />
      <stop offset="80%" style="stop-color:#E5E7EB;stop-opacity:1" />
    </radialGradient>
  </defs>
  
  <!-- Main body -->
  <ellipse cx="100" cy="120" rx="70" ry="45" fill="url(#orcaGradient)" stroke="#1E3A8A" stroke-width="2"/>
  
  <!-- Head -->
  <ellipse cx="100" cy="85" rx="45" ry="35" fill="url(#orcaGradient)" stroke="#1E3A8A" stroke-width="2"/>
  
  <!-- White belly patch -->
  <ellipse cx="100" cy="130" rx="35" ry="25" fill="#FFFFFF" opacity="0.9"/>
  
  <!-- Dorsal fin -->
  <path d="M 100 55 Q 90 45 85 40 Q 95 45 100 55" fill="url(#orcaGradient)" stroke="#1E3A8A" stroke-width="2"/>
  
  <!-- Tail flukes -->
  <path d="M 165 120 Q 180 110 185 105 Q 180 125 175 130 Q 180 135 185 140 Q 180 130 165 120" fill="url(#orcaGradient)" stroke="#1E3A8A" stroke-width="2"/>
  
  <!-- Pectoral fins -->
  <ellipse cx="75" cy="110" rx="15" ry="8" fill="url(#orcaGradient)" stroke="#1E3A8A" stroke-width="1" transform="rotate(-30 75 110)"/>
  <ellipse cx="125" cy="110" rx="15" ry="8" fill="url(#orcaGradient)" stroke="#1E3A8A" stroke-width="1" transform="rotate(30 125 110)"/>
  
  <!-- Eyes -->
  <circle cx="90" cy="80" r="8" fill="url(#eyeGradient)" stroke="#1E3A8A" stroke-width="1"/>
  <circle cx="110" cy="80" r="8" fill="url(#eyeGradient)" stroke="#1E3A8A" stroke-width="1"/>
  
  <!-- Eye pupils -->
  <circle cx="92" cy="82" r="3" fill="#1E3A8A"/>
  <circle cx="108" cy="82" r="3" fill="#1E3A8A"/>
  
  <!-- Eye highlights -->
  <circle cx="93" cy="80" r="1" fill="#FFFFFF"/>
  <circle cx="107" cy="80" r="1" fill="#FFFFFF"/>
  
  <!-- Saddle patch (distinctive orca marking) -->
  <path d="M 70 95 Q 100 90 130 95 Q 125 105 100 110 Q 75 105 70 95" fill="#FFFFFF" opacity="0.8"/>
  
  <!-- Nostril/blowhole -->
  <ellipse cx="100" cy="70" rx="3" ry="1.5" fill="#1E3A8A"/>
  
  <!-- Water spout (indicating life/activity) -->
  <path d="M 100 65 Q 98 55 96 50 Q 100 55 102 50 Q 104 55 100 65" fill="#60A5FA" opacity="0.6"/>
  <path d="M 102 63 Q 105 53 108 48 Q 105 53 102 63" fill="#60A5FA" opacity="0.4"/>
  <path d="M 98 63 Q 95 53 92 48 Q 95 53 98 63" fill="#60A5FA" opacity="0.4"/>
</svg>